<?xml version="1.0" encoding="utf-8"?>
<!-- Generator: Adobe Illustrator 28.4.1, SVG Export Plug-In . SVG Version: 6.00 Build 0)  -->
<svg version="1.1" id="Layer_2_00000076599472236620063980000009008304013672423585_"
	 xmlns="http://www.w3.org/2000/svg" xmlns:xlink="http://www.w3.org/1999/xlink" x="0px" y="0px" viewBox="0 0 128.5 87.5"
	 style="enable-background:new 0 0 128.5 87.5;" xml:space="preserve">
<style type="text/css">
	.st0{fill:#7D2B8A;}
	.st1{fill:#84C0EB;}
</style>
<g>
	<rect y="0" class="st0" width="59.2" height="16.4"/>
	<path class="st0" d="M29.6,28.3v16.4c7.8,0,14,6.7,13.1,14.7c-0.7,6-5.5,10.9-11.6,11.6c-7.9,0.9-14.7-5.3-14.7-13.1H0
		c0,17,14.4,30.7,31.7,29.5c14.6-1,26.4-12.8,27.4-27.4C60.3,42.7,46.7,28.3,29.6,28.3L29.6,28.3z"/>
	<path class="st1" d="M59.2,0L30.1,27.1c-0.3,0.3-0.5,0.7-0.5,1.1v16.5l29.1-27.1c0.3-0.3,0.5-0.7,0.5-1.2V0z"/>
	<path class="st1" d="M58.1,49.9L58.1,49.9c0,0.2,0.1,0.3,0.1,0.5C58.2,50.2,58.1,50,58.1,49.9z"/>
	<path class="st1" d="M84.7,0H65.1v16.4h19.4h0.2c15.1,0,27.3,12.2,27.3,27.3S99.8,71.1,84.7,71.1c-12.6,0-23.2-8.5-26.3-20.1
		c0.7,2.9,1,5.9,0.8,9c-0.4,5.4-2.3,10.5-5.2,14.8c7.9,7.9,18.8,12.7,30.8,12.7c24.2,0,43.8-19.6,43.8-43.8S108.9,0,84.7,0z"/>
	<path class="st1" d="M73,47.1l-0.4-1.3h-3.5l-0.4,1.3h-2.3l3.1-8.4h2.7l3.2,8.3L73,47.1z M70.8,40.6L69.7,44H72L70.8,40.6z"/>
	<polygon class="st1" points="81.9,47.1 78.4,42.1 78.4,47.1 76.2,47.1 76.2,38.8 78.4,38.8 81.8,43.6 81.8,38.8 84,38.8 84,47.1 
		81.9,47.1 	"/>
	<path class="st1" d="M89.8,38.6c2.6,0,4.5,1.8,4.5,4.3s-1.9,4.3-4.5,4.3s-4.5-1.8-4.5-4.3S87.2,38.6,89.8,38.6z M89.8,40.5
		c-1.4,0-2.3,1-2.3,2.4s0.9,2.4,2.3,2.4s2.3-1.1,2.3-2.4S91.2,40.5,89.8,40.5z"/>
	<path class="st1" d="M96.1,44.3c0.6,0.6,1.5,1.1,2.7,1.1c0.7,0,1.2-0.3,1.2-0.7c0-0.5-0.5-0.7-1.4-0.8c-1.4-0.3-3.3-0.6-3.3-2.6
		c0-1.4,1.2-2.6,3.3-2.6c1.3,0,2.5,0.4,3.4,1.2l-1.2,1.5c-0.7-0.6-1.6-0.9-2.3-0.9s-1,0.3-1,0.7c0,0.4,0.5,0.6,1.4,0.8
		c1.4,0.3,3.3,0.7,3.3,2.6c0,1.7-1.2,2.8-3.5,2.8c-1.7,0-2.9-0.5-3.7-1.3L96.1,44.3L96.1,44.3z"/>
</g>
</svg>
