<?xml version="1.0" encoding="UTF-8"?>
<svg id="Layer_2" data-name="Layer 2" xmlns="http://www.w3.org/2000/svg" viewBox="0 0 405.36 88.55">
  <defs>
    <style>
      .cls-1 {
        fill: #84c0eb;
      }

      .cls-1, .cls-2 {
        stroke-width: 0px;
      }

      .cls-2 {
        fill: #7d2b8a;
      }
    </style>
  </defs>
  <g id="Layer_1-2" data-name="Layer 1">
    <g>
      <g>
        <g>
          <rect class="cls-2" x="21.38" y="-20.93" width="16.43" height="59.2" transform="translate(20.93 38.27) rotate(-90)"/>
          <path class="cls-2" d="M29.6,28.8v16.43c7.77,0,13.96,6.72,13.08,14.67-.67,6.04-5.55,10.92-11.59,11.59-7.94.88-14.67-5.32-14.67-13.08H0C0,75.44,14.4,89.11,31.7,87.92c14.6-1.01,26.42-12.83,27.43-27.43,1.19-17.3-12.48-31.7-29.53-31.7Z"/>
          <path class="cls-1" d="M59.2.46l-29.1,27.08c-.32.3-.5.72-.5,1.15v16.53l29.1-27.09c.32-.3.5-.72.5-1.15V.46Z"/>
          <g>
            <path class="cls-1" d="M58.08,50.31h-.01c.04.16.09.32.13.48-.04-.16-.08-.32-.12-.48Z"/>
            <path class="cls-1" d="M84.73.46h-19.64v16.43h19.43c.07,0,.14,0,.21,0,15.1,0,27.34,12.24,27.34,27.34s-12.24,27.34-27.34,27.34c-12.58,0-23.17-8.51-26.35-20.08.69,2.87.96,5.89.75,9.01-.38,5.45-2.26,10.51-5.23,14.76,7.91,7.86,18.8,12.73,30.84,12.73,24.17,0,43.77-19.59,43.77-43.77S108.9.46,84.73.46Z"/>
          </g>
        </g>
        <g>
          <path class="cls-1" d="M72.99,47.56l-.43-1.27h-3.47l-.43,1.27h-2.34l3.14-8.35h2.71l3.16,8.35h-2.34ZM70.82,41.08l-1.16,3.39h2.34l-1.18-3.39Z"/>
          <path class="cls-1" d="M81.89,47.56l-3.53-5.05v5.05h-2.15v-8.35h2.22l3.38,4.81v-4.81h2.17v8.35h-2.08Z"/>
          <path class="cls-1" d="M89.78,39.07c2.56,0,4.46,1.78,4.46,4.32s-1.9,4.32-4.46,4.32-4.47-1.78-4.47-4.32,1.92-4.32,4.47-4.32ZM89.78,40.97c-1.39,0-2.28,1.05-2.28,2.42s.89,2.42,2.28,2.42,2.27-1.06,2.27-2.42-.89-2.42-2.27-2.42Z"/>
          <path class="cls-1" d="M96.12,44.76c.6.6,1.53,1.1,2.67,1.1.74,0,1.19-.31,1.19-.71,0-.48-.54-.66-1.43-.85-1.38-.28-3.31-.63-3.31-2.61,0-1.4,1.19-2.62,3.33-2.62,1.34,0,2.51.4,3.39,1.16l-1.18,1.54c-.7-.58-1.62-.86-2.35-.86s-.99.29-.99.65c0,.44.51.59,1.44.76,1.38.29,3.28.69,3.28,2.58,0,1.68-1.24,2.79-3.48,2.79-1.69,0-2.87-.53-3.71-1.33l1.14-1.62Z"/>
        </g>
      </g>
      <g>
        <g>
          <path class="cls-1" d="M146.59,26.05V8.87l-4.3,4.34-3.76-3.96L147.47.42h5.72v25.63h-6.61Z"/>
          <path class="cls-1" d="M164.04,1.15c4.3,0,6.84,2.96,6.84,6.34s-2.54,6.34-6.84,6.34-6.8-2.96-6.8-6.34,2.57-6.34,6.8-6.34ZM164.04,4.57c-1.54,0-2.46,1-2.46,2.92s.92,3,2.46,3,2.54-1.08,2.54-3-.96-2.92-2.54-2.92Z"/>
          <path class="cls-1" d="M184.21,13.25c0-7.91,5.99-13.25,13.68-13.25,6.38,0,9.68,3.5,11.37,6.88l-5.69,2.69c-.85-2.04-3.04-3.73-5.69-3.73-4,0-6.95,3.23-6.95,7.41s2.96,7.41,6.95,7.41c2.65,0,4.84-1.69,5.69-3.73l5.69,2.69c-1.65,3.3-4.99,6.88-11.37,6.88-7.68,0-13.68-5.38-13.68-13.25Z"/>
          <path class="cls-1" d="M225.29,0c7.84,0,13.68,5.46,13.68,13.25s-5.84,13.25-13.68,13.25-13.72-5.46-13.72-13.25,5.88-13.25,13.72-13.25ZM225.29,5.84c-4.26,0-6.99,3.23-6.99,7.41s2.73,7.41,6.99,7.41,6.95-3.27,6.95-7.41-2.73-7.41-6.95-7.41Z"/>
          <path class="cls-1" d="M260.53,26.05l-10.83-15.48v15.48h-6.61V.42h6.8l10.37,14.75V.42h6.65v25.63h-6.38Z"/>
          <path class="cls-1" d="M270.98,13.25c0-7.91,5.99-13.25,13.68-13.25,6.38,0,9.68,3.5,11.37,6.88l-5.69,2.69c-.85-2.04-3.04-3.73-5.69-3.73-4,0-6.95,3.23-6.95,7.41s2.96,7.41,6.95,7.41c2.65,0,4.84-1.69,5.69-3.73l5.69,2.69c-1.65,3.3-4.99,6.88-11.37,6.88-7.68,0-13.68-5.38-13.68-13.25Z"/>
          <path class="cls-1" d="M299.65.42h6.72v15.02c0,3.04,1.61,5.22,5.19,5.22s5.15-2.19,5.15-5.22V.42h6.72v15.21c0,6.38-3.65,10.87-11.87,10.87s-11.91-4.53-11.91-10.83V.42Z"/>
          <path class="cls-1" d="M343.11,26.05l-4.3-8.68h-3.38v8.68h-6.61V.42h12.83c5.69,0,8.91,3.77,8.91,8.53,0,4.46-2.73,6.84-5.11,7.68l5.22,9.41h-7.57ZM340.65,5.99h-5.22v5.76h5.22c1.73,0,3.19-1.11,3.19-2.88s-1.46-2.88-3.19-2.88Z"/>
          <path class="cls-1" d="M356.64,17.48c1.84,1.84,4.69,3.38,8.18,3.38,2.27,0,3.65-.96,3.65-2.19,0-1.46-1.65-2.04-4.38-2.61-4.23-.85-10.14-1.92-10.14-7.99,0-4.3,3.65-8.03,10.22-8.03,4.11,0,7.68,1.23,10.41,3.57l-3.61,4.73c-2.15-1.77-4.96-2.65-7.22-2.65s-3.04.88-3.04,2c0,1.34,1.58,1.81,4.42,2.34,4.23.88,10.07,2.11,10.07,7.91,0,5.15-3.8,8.57-10.68,8.57-5.19,0-8.8-1.61-11.37-4.07l3.5-4.96Z"/>
          <path class="cls-1" d="M391.45,0c7.84,0,13.68,5.46,13.68,13.25s-5.84,13.25-13.68,13.25-13.72-5.46-13.72-13.25,5.88-13.25,13.72-13.25ZM391.45,5.84c-4.26,0-6.99,3.23-6.99,7.41s2.73,7.41,6.99,7.41,6.95-3.27,6.95-7.41-2.73-7.41-6.95-7.41Z"/>
        </g>
        <g>
          <path class="cls-1" d="M146.85,57.08v-22.02h7.03c6.83,0,11.12,4.98,11.12,11.02s-4.29,10.99-11.12,10.99h-7.03ZM148.73,55.37h5.15c5.81,0,9.14-4.13,9.14-9.28s-3.3-9.31-9.14-9.31h-5.15v18.58Z"/>
          <path class="cls-1" d="M170.35,57.08v-22.02h13.96v1.72h-12.08v8.15h11.85v1.72h-11.85v8.71h12.08v1.72h-13.96Z"/>
          <path class="cls-1" d="M199.39,49.72c1.58,1.58,4.03,2.9,7.03,2.9,1.95,0,3.14-.83,3.14-1.88,0-1.25-1.42-1.75-3.76-2.24-3.63-.73-8.71-1.65-8.71-6.87,0-3.7,3.14-6.9,8.78-6.9,3.53,0,6.6,1.06,8.95,3.07l-3.1,4.06c-1.85-1.52-4.26-2.28-6.21-2.28s-2.61.76-2.61,1.72c0,1.16,1.35,1.55,3.8,2.01,3.63.76,8.65,1.82,8.65,6.8,0,4.42-3.27,7.36-9.18,7.36-4.46,0-7.56-1.39-9.77-3.5l3-4.26Z"/>
          <path class="cls-1" d="M218.63,57.08v-22.02h16.14v4.79h-10.46v3.66h10.23v4.82h-10.23v3.96h10.46v4.79h-16.14Z"/>
          <path class="cls-1" d="M251.01,57.08l-3.7-7.46h-2.9v7.46h-5.68v-22.02h11.03c4.89,0,7.66,3.24,7.66,7.33,0,3.83-2.34,5.88-4.39,6.6l4.49,8.09h-6.5ZM248.9,39.85h-4.49v4.95h4.49c1.49,0,2.74-.96,2.74-2.48s-1.25-2.48-2.74-2.48Z"/>
          <path class="cls-1" d="M266.82,57.08l-8.29-22.02h6.44l5.41,15.88,5.45-15.88h6.44l-8.32,22.02h-7.13Z"/>
          <path class="cls-1" d="M284.54,57.08v-22.02h5.68v22.02h-5.68Z"/>
          <path class="cls-1" d="M294.83,57.08v-22.02h9.24c6.93,0,11.92,4.16,11.92,10.99s-4.98,11.02-11.88,11.02h-9.28ZM300.51,52.13h3.56c3.86,0,6.11-2.81,6.11-6.07s-2.05-6.04-6.07-6.04h-3.6v12.11Z"/>
          <path class="cls-1" d="M330.15,34.7c6.73,0,11.75,4.69,11.75,11.39s-5.02,11.39-11.75,11.39-11.78-4.69-11.78-11.39,5.05-11.39,11.78-11.39ZM330.15,39.72c-3.66,0-6.01,2.77-6.01,6.37s2.34,6.37,6.01,6.37,5.97-2.81,5.97-6.37-2.34-6.37-5.97-6.37Z"/>
          <path class="cls-1" d="M357.71,57.08l-3.7-7.46h-2.9v7.46h-5.68v-22.02h11.03c4.89,0,7.66,3.24,7.66,7.33,0,3.83-2.34,5.88-4.39,6.6l4.49,8.09h-6.5ZM355.59,39.85h-4.49v4.95h4.49c1.49,0,2.74-.96,2.74-2.48s-1.25-2.48-2.74-2.48Z"/>
          <path class="cls-1" d="M367.9,57.08v-22.02h16.14v4.79h-10.46v3.66h10.23v4.82h-10.23v3.96h10.46v4.79h-16.14Z"/>
          <path class="cls-1" d="M389.42,49.72c1.58,1.58,4.03,2.9,7.03,2.9,1.95,0,3.14-.83,3.14-1.88,0-1.25-1.42-1.75-3.76-2.24-3.63-.73-8.71-1.65-8.71-6.87,0-3.7,3.14-6.9,8.78-6.9,3.53,0,6.6,1.06,8.95,3.07l-3.1,4.06c-1.85-1.52-4.26-2.28-6.21-2.28s-2.61.76-2.61,1.72c0,1.16,1.35,1.55,3.8,2.01,3.63.76,8.65,1.82,8.65,6.8,0,4.42-3.27,7.36-9.18,7.36-4.46,0-7.56-1.39-9.77-3.5l3-4.26Z"/>
        </g>
        <g>
          <path class="cls-1" d="M146.83,88.15v-22.16h9.3c6.98,0,11.99,4.19,11.99,11.06s-5.02,11.1-11.96,11.1h-9.34ZM152.55,83.17h3.59c3.89,0,6.15-2.82,6.15-6.11s-2.06-6.08-6.11-6.08h-3.62v12.19Z"/>
          <path class="cls-1" d="M182.38,65.63c6.78,0,11.83,4.72,11.83,11.46s-5.05,11.46-11.83,11.46-11.86-4.72-11.86-11.46,5.08-11.46,11.86-11.46ZM182.38,70.68c-3.69,0-6.05,2.79-6.05,6.41s2.36,6.41,6.05,6.41,6.01-2.82,6.01-6.41-2.36-6.41-6.01-6.41Z"/>
          <path class="cls-1" d="M226.36,88.15v-14.95l-5.62,14.95h-2.53l-5.58-14.95v14.95h-5.71v-22.16h7.94l4.62,12.56,4.65-12.56h7.94v22.16h-5.71Z"/>
          <path class="cls-1" d="M236.71,88.15v-22.16h11.1c4.98,0,7.71,3.36,7.71,7.38s-2.72,7.28-7.71,7.28h-5.38v7.51h-5.71ZM247.05,70.81h-4.62v4.98h4.62c1.53,0,2.66-.96,2.66-2.46s-1.13-2.53-2.66-2.53Z"/>
          <path class="cls-1" d="M258.73,65.99h5.81v12.99c0,2.62,1.4,4.52,4.49,4.52s4.45-1.89,4.45-4.52v-12.99h5.81v13.16c0,5.52-3.16,9.4-10.27,9.4s-10.3-3.92-10.3-9.37v-13.19Z"/>
        </g>
      </g>
    </g>
  </g>
</svg>