<?xml version="1.0" encoding="UTF-8"?>
<svg id="Layer_2" data-name="Layer 2" xmlns="http://www.w3.org/2000/svg" viewBox="0 0 154.3 68.33">
  <defs>
    <style>
      .cls-1 {
        fill: #f5f5f5;
        stroke-width: 0px;
      }
    </style>
  </defs>
  <g id="Layer_1-2" data-name="Layer 1">
    <g>
      <path class="cls-1" d="M63.6,49.93h-13.63l-3.01-21.58c-.21-1.52-.4-3.22-.58-5.08-.18-1.87-.55-3.9-.69-6.11-.33,2.12-.97,4.75-1.92,7.91-.21.66-.36,1.14-.46,1.46l-6.96,23.39h-9.08l-6.96-23.39c-.09-.32-.23-.81-.42-1.46-.98-3.16-1.62-5.79-1.92-7.88-.14,1.89-.44,3.76-.63,5.61-.18,1.86-.41,3.7-.66,5.54l-3.01,21.58H.08L9.15.02l13.52-.02,7.48,25.76c.05.18.14.48.28.88.72,2.3,1.18,4.27,1.36,5.9.09-.89.27-1.87.53-2.95.25-1.08.61-2.38,1.05-3.91L40.92.02h13.65l9.03,49.91Z"/>
      <path class="cls-1" d="M86.31,49.93h-13.65V.02h15.26c6.15,0,10.46.27,12.95.82,2.48.55,4.59,1.48,6.32,2.8,2.03,1.52,3.58,3.42,4.64,5.71,1.07,2.29,1.6,4.83,1.6,7.62,0,2.98-.53,5.6-1.58,7.86-1.05,2.27-2.61,4.12-4.67,5.58-1.56,1.09-3.39,1.88-5.49,2.35-2.11.48-5.48.72-10.12.72h-5.26v16.46ZM86.31,22.51h2.85c3.61,0,6.13-.45,7.56-1.35,1.43-.9,2.14-2.43,2.14-4.59s-.7-3.58-2.1-4.47c-1.41-.89-3.89-1.33-7.45-1.33h-3v11.75Z"/>
      <polygon class="cls-1" points="122.59 49.93 122.59 .02 154.3 .02 154.3 10.94 136.19 10.94 136.19 19.63 152.95 19.63 152.95 30.33 136.19 30.33 136.19 49.93 122.59 49.93"/>
      <path class="cls-1" d="M11.36,68.08h-2.38l-.55-3.96c-.04-.28-.07-.59-.1-.93-.03-.34-.06-.72-.09-1.12-.06.38-.18.87-.35,1.45-.04.12-.07.21-.08.27l-1.27,4.29h-1.7l-1.27-4.29c-.02-.06-.04-.15-.08-.27-.18-.58-.3-1.06-.35-1.44-.02.35-.06.69-.09,1.03-.03.34-.07.68-.12,1.01l-.55,3.96H0l1.44-9.16h2.52l1.41,4.72s.02.09.05.16c.13.42.22.78.25,1.08.02-.16.05-.34.1-.54.05-.2.11-.44.19-.72l1.43-4.71h2.53l1.44,9.16Z"/>
      <path class="cls-1" d="M11.88,59.79c0-.33.12-.62.37-.86.24-.24.54-.36.88-.36s.66.12.9.35c.24.23.36.52.36.87s-.13.64-.37.88c-.25.25-.54.36-.89.36s-.63-.12-.88-.37c-.25-.25-.37-.54-.37-.88M11.99,61.76h2.29v6.32h-2.29v-6.32Z"/>
      <path class="cls-1" d="M15.35,68.08v-6.32h2.09v1.28c.3-.51.65-.89,1.05-1.13.4-.24.87-.36,1.42-.36.42,0,.79.06,1.11.2.33.13.59.32.8.57.17.21.29.47.36.78.07.3.11.76.11,1.36v3.62h-2.29v-3.38c0-.5-.08-.87-.25-1.1-.17-.23-.44-.35-.8-.35-.47,0-.82.17-1.03.52-.22.34-.33.9-.33,1.66v2.65h-2.24Z"/>
      <path class="cls-1" d="M23.2,59.79c0-.33.12-.62.37-.86.24-.24.54-.36.88-.36s.66.12.9.35c.24.23.36.52.36.87s-.12.64-.37.88c-.25.25-.54.36-.89.36s-.63-.12-.88-.37c-.25-.25-.37-.54-.37-.88M23.31,61.76h2.29v6.32h-2.29v-6.32Z"/>
      <path class="cls-1" d="M26.07,67.56l.48-1.7c.33.28.7.5,1.09.65.4.16.8.23,1.2.23.28,0,.5-.04.65-.14.15-.09.22-.22.22-.39,0-.28-.3-.49-.89-.62-.2-.05-.35-.09-.47-.12-.68-.18-1.18-.42-1.49-.73-.31-.3-.46-.69-.46-1.16,0-.61.24-1.1.71-1.47.47-.37,1.11-.55,1.91-.55.41,0,.84.05,1.26.14.43.09.87.24,1.31.44l-.47,1.52c-.3-.2-.61-.35-.92-.46-.31-.1-.62-.16-.93-.16-.26,0-.46.04-.59.12-.13.08-.2.19-.2.35,0,.23.3.42.89.57.14.03.24.06.31.08.79.23,1.34.48,1.65.78.31.29.46.7.46,1.21,0,.64-.25,1.17-.76,1.57-.51.4-1.18.59-2.01.59-.57,0-1.09-.06-1.58-.18-.49-.13-.94-.32-1.37-.58"/>
      <polygon class="cls-1" points="32.7 68.08 32.7 63.34 31.74 63.34 31.74 61.77 32.7 61.77 32.7 59.88 34.94 59.88 34.94 61.77 35.9 61.77 35.9 63.34 34.94 63.34 34.94 68.08 32.7 68.08"/>
      <path class="cls-1" d="M43.01,65.36h-4.91c0,.49.13.87.38,1.14.25.27.61.4,1.07.4.35,0,.64-.06.88-.19.24-.13.42-.32.54-.57l1.71.68c-.21.48-.57.85-1.09,1.12-.52.27-1.16.39-1.91.39-1.13,0-2.03-.31-2.71-.91-.68-.61-1.02-1.42-1.02-2.42s.34-1.8,1.02-2.46c.68-.65,1.54-.97,2.58-.97s1.91.33,2.53.99c.62.66.93,1.56.93,2.71v.11ZM40.77,64.11c-.04-.36-.18-.64-.42-.86-.24-.22-.53-.33-.88-.33-.37,0-.67.1-.89.3-.22.2-.36.49-.44.89h2.62ZM41.33,58.72l-1.97,2.19h-.98l1.16-2.19h1.79Z"/>
      <path class="cls-1" d="M43.66,68.08v-6.32h2.15v1.49c.22-.54.53-.95.91-1.22.38-.27.85-.41,1.39-.41.09,0,.18,0,.27.01.09,0,.18.01.28.03l-.22,2.03c-.13-.05-.27-.08-.4-.1-.13-.02-.26-.03-.38-.03-.55,0-.98.17-1.28.5-.3.33-.45.8-.45,1.4v2.62h-2.26Z"/>
      <path class="cls-1" d="M48.81,59.79c0-.33.12-.62.37-.86.25-.24.54-.36.88-.36s.66.12.9.35c.24.23.36.52.36.87s-.12.64-.37.88c-.24.25-.54.36-.89.36s-.63-.12-.88-.37c-.25-.25-.37-.54-.37-.88M48.92,61.76h2.29v6.32h-2.29v-6.32Z"/>
      <path class="cls-1" d="M59.12,64.94c0,.45-.09.89-.27,1.29-.18.41-.44.78-.79,1.1-.35.33-.74.57-1.17.74-.43.17-.89.25-1.38.25s-.96-.08-1.39-.25c-.43-.17-.82-.41-1.16-.74-.34-.32-.6-.68-.78-1.1-.18-.41-.27-.84-.27-1.3s.09-.9.27-1.31c.18-.41.44-.78.78-1.1.33-.32.72-.56,1.15-.73.43-.16.9-.24,1.4-.24s.96.08,1.39.24c.43.17.82.41,1.16.73.35.33.62.7.79,1.11.18.41.27.84.27,1.3M56.86,64.94c0-.47-.12-.85-.36-1.12-.24-.27-.57-.41-.98-.41s-.75.13-.99.41c-.24.27-.36.65-.36,1.12s.12.84.36,1.11c.24.27.57.41.99.41s.75-.13.99-.41c.24-.27.36-.64.36-1.11"/>
      <path class="cls-1" d="M65.77,68.09h-2.39v-9.16h2.67c1.04,0,1.78.05,2.2.15.42.09.78.27,1.07.51.34.28.61.63.79,1.05.18.42.27.88.27,1.39,0,.55-.09,1.03-.27,1.45-.18.41-.44.76-.79,1.02-.26.2-.57.34-.93.43-.36.09-.93.13-1.72.13h-.9v3.03ZM65.77,63.04h.49c.61,0,1.04-.09,1.28-.25.24-.16.37-.44.37-.84s-.12-.65-.36-.82c-.24-.16-.66-.24-1.27-.24h-.51v2.15Z"/>
      <path class="cls-1" d="M77.48,61.76v3.23c0,.71-.06,1.24-.18,1.59-.12.35-.31.65-.59.92-.28.28-.64.49-1.07.63-.43.14-.93.2-1.5.2s-1.07-.07-1.49-.2c-.43-.14-.79-.35-1.09-.63-.28-.26-.47-.56-.59-.91-.12-.35-.17-.88-.17-1.59v-3.23h2.17v3.37c0,.53.09.91.27,1.15.18.24.47.36.87.36s.7-.12.87-.35c.18-.23.27-.61.27-1.16v-3.37h2.23ZM76.01,58.72l-1.97,2.19h-.98l1.16-2.19h1.79Z"/>
      <path class="cls-1" d="M78.47,58.4h2.17v3.29c0,.27,0,.49-.02.66,0,.18-.03.33-.05.46.27-.45.57-.77.91-.96.35-.19.79-.28,1.34-.28.86,0,1.56.31,2.1.93.54.62.8,1.43.8,2.44s-.27,1.87-.81,2.48c-.54.61-1.26.92-2.17.92-.44,0-.85-.1-1.21-.31-.36-.21-.69-.53-.98-.95v1.02h-2.09v-9.69ZM80.49,64.93c0,.49.13.88.39,1.17.26.29.62.43,1.09.43s.83-.14,1.1-.42c.26-.28.4-.67.4-1.17s-.13-.88-.4-1.17c-.27-.29-.64-.43-1.1-.43s-.83.14-1.09.43c-.26.28-.39.67-.39,1.17"/>
      <rect class="cls-1" x="86.52" y="58.4" width="2.29" height="9.69"/>
      <path class="cls-1" d="M89.84,59.79c0-.33.13-.62.37-.86.24-.24.54-.36.88-.36s.66.12.9.35c.24.23.36.52.36.87s-.12.64-.37.88c-.24.25-.54.36-.89.36s-.63-.12-.88-.37c-.25-.25-.37-.54-.37-.88M89.95,61.76h2.29v6.32h-2.29v-6.32Z"/>
      <path class="cls-1" d="M97.94,63.84c-.22-.19-.43-.33-.64-.42-.2-.09-.42-.13-.64-.13-.45,0-.81.15-1.08.44-.27.29-.4.69-.4,1.19s.14.87.41,1.16c.28.29.65.43,1.12.43.23,0,.44-.05.65-.14.2-.09.4-.23.58-.42v1.93c-.27.15-.55.27-.82.33-.27.07-.55.1-.84.1-.99,0-1.8-.31-2.41-.93-.61-.62-.92-1.45-.92-2.46s.32-1.8.94-2.43c.63-.62,1.44-.94,2.42-.94.32,0,.62.03.89.1.26.06.51.16.75.3v1.88Z"/>
      <path class="cls-1" d="M105.53,64.94c0,.45-.09.89-.27,1.29-.18.41-.44.78-.79,1.1-.35.33-.74.57-1.17.74-.43.17-.89.25-1.38.25s-.96-.08-1.39-.25c-.43-.17-.82-.41-1.16-.74-.35-.32-.6-.68-.78-1.1-.18-.41-.27-.84-.27-1.3s.08-.9.27-1.31c.18-.41.44-.78.79-1.1.33-.32.72-.56,1.15-.73.43-.16.9-.24,1.4-.24s.96.08,1.39.24c.43.17.82.41,1.16.73.35.33.61.7.8,1.11.18.41.27.84.27,1.3M103.27,64.94c0-.47-.12-.85-.36-1.12-.24-.27-.57-.41-.98-.41s-.75.13-.99.41c-.24.27-.36.65-.36,1.12s.12.84.36,1.11c.24.27.57.41.99.41s.75-.13.99-.41c.24-.27.36-.64.36-1.11"/>
      <polygon class="cls-1" points="109.79 68.08 109.79 58.92 115.53 58.92 115.53 60.93 112.28 60.93 112.28 62.52 115.34 62.52 115.34 64.48 112.28 64.48 112.28 68.08 109.79 68.08"/>
      <path class="cls-1" d="M122.79,65.36h-4.91c0,.49.13.87.39,1.14.25.27.61.4,1.07.4.35,0,.64-.07.87-.19.24-.13.42-.32.55-.57l1.71.68c-.2.48-.56.85-1.09,1.12-.52.27-1.16.39-1.92.39-1.13,0-2.03-.31-2.71-.91-.68-.61-1.02-1.42-1.02-2.42s.34-1.8,1.02-2.45c.68-.65,1.54-.98,2.58-.98s1.91.33,2.53.99c.62.66.93,1.56.93,2.71v.11ZM120.55,64.11c-.05-.36-.18-.64-.42-.86-.24-.22-.53-.33-.88-.33-.37,0-.67.1-.89.3-.22.2-.37.49-.44.89h2.62Z"/>
      <path class="cls-1" d="M130.4,58.4v9.69h-2.09v-1.02c-.29.43-.62.74-.98.95-.36.21-.76.31-1.21.31-.91,0-1.63-.31-2.17-.92-.54-.61-.81-1.44-.81-2.48s.27-1.82.81-2.44c.53-.62,1.23-.93,2.09-.93.55,0,.99.1,1.33.28.35.19.65.51.92.96-.03-.15-.04-.32-.06-.51-.02-.19-.02-.4-.02-.61v-3.29h2.18ZM128.38,64.93c0-.49-.13-.88-.4-1.17-.27-.29-.63-.43-1.09-.43s-.82.14-1.09.43c-.26.28-.4.67-.4,1.17s.13.89.4,1.17c.26.28.62.42,1.09.42s.83-.14,1.09-.43c.27-.28.4-.68.4-1.17"/>
      <path class="cls-1" d="M138.11,65.36h-4.91c0,.49.13.87.39,1.14.25.27.61.4,1.07.4.35,0,.64-.07.87-.19.24-.13.42-.32.54-.57l1.71.68c-.21.48-.57.85-1.09,1.12-.52.27-1.16.39-1.91.39-1.13,0-2.03-.31-2.71-.91-.68-.61-1.02-1.42-1.02-2.42s.34-1.8,1.02-2.45c.68-.65,1.54-.98,2.58-.98s1.91.33,2.53.99c.62.66.93,1.56.93,2.71v.11ZM135.87,64.11c-.04-.36-.18-.64-.42-.86s-.53-.33-.87-.33c-.38,0-.67.1-.89.3-.22.2-.37.49-.44.89h2.62Z"/>
      <path class="cls-1" d="M138.77,68.08v-6.32h2.15v1.49c.22-.54.52-.95.9-1.22.39-.27.85-.41,1.39-.41.09,0,.18,0,.27.01.09,0,.18.01.28.03l-.22,2.03c-.14-.05-.27-.08-.4-.1-.13-.02-.26-.03-.38-.03-.55,0-.98.17-1.28.5-.3.33-.45.8-.45,1.4v2.62h-2.26Z"/>
      <path class="cls-1" d="M150.88,61.76v6.32h-2.09v-1.02c-.3.44-.63.76-1,.96-.38.21-.81.31-1.32.31-.86,0-1.55-.31-2.06-.92-.52-.62-.77-1.44-.77-2.48s.27-1.85.81-2.46c.54-.61,1.26-.91,2.18-.91.49,0,.91.1,1.25.3.35.2.65.51.91.93v-1.03h2.1ZM148.88,64.92c0-.49-.14-.88-.4-1.17-.27-.29-.63-.44-1.1-.44s-.83.14-1.1.43c-.27.29-.4.68-.4,1.18s.13.88.4,1.17c.27.28.63.43,1.09.43s.83-.14,1.1-.43c.27-.28.4-.68.4-1.17"/>
      <rect class="cls-1" x="152.01" y="58.4" width="2.29" height="9.69"/>
    </g>
  </g>
</svg>